<?xml version="1.0" encoding="UTF-8"?>
<svg version="1.1" xmlns="http://www.w3.org/2000/svg" width="2000" height="2000">
<path d="M0 0 C660 0 1320 0 2000 0 C2000 660 2000 1320 2000 2000 C1340 2000 680 2000 0 2000 C0 1340 0 680 0 0 Z " fill="#3D3939" transform="translate(0,0)"/>
<path d="M0 0 C98.67 0 197.34 0 299 0 C299 116.49 299 232.98 299 353 C314.18 349.37 329.36 345.74 345 342 C366.6162675 336.9254494 388.15157143 332.01958081 409.93896484 327.79638672 C414.48115046 326.91055465 419.01586348 325.988605 423.55078125 325.06640625 C443.6829475 320.97940677 463.83735527 317.14697738 484.08520508 313.67700195 C486.88089186 313.19353208 489.67470465 312.70328786 492.4675293 312.20385742 C493.21958145 312.06965897 493.97163361 311.93546051 494.74647522 311.79719543 C496.1812521 311.54064554 497.61579249 311.28276767 499.05003357 311.02323914 C504.79259044 309.99778411 510.54788687 309.22557047 516.33984375 308.52734375 C519.15155815 308.12224082 521.86244168 307.62537015 524.63671875 307.0390625 C530.67446924 305.80085754 536.75362386 305.12127074 542.875 304.4375 C545.08099693 304.18855937 547.28673968 303.93735311 549.4921875 303.68359375 C550.93634033 303.52201782 550.93634033 303.52201782 552.40966797 303.35717773 C554.90817394 303.06345377 554.90817394 303.06345377 556.93603516 302.5 C559.78368411 301.81015081 562.61447272 301.58737145 565.53125 301.31640625 C566.81773438 301.19330078 568.10421875 301.07019531 569.4296875 300.94335938 C572.11180688 300.69146721 574.79417197 300.44236321 577.4765625 300.19335938 C584.53179537 299.51659002 591.48508619 298.68517477 598.45605469 297.39477539 C602.01908251 296.84185639 605.40226785 296.86162569 609 297 C611.21148131 303.19829845 612.87387836 309.36706466 614.1875 315.8125 C614.36474609 316.64458984 614.54199219 317.47667969 614.72460938 318.33398438 C615.49351744 322.03602437 616 325.18548924 616 329 C596.62545667 336.28335525 596.62545667 336.28335525 587.15234375 338.98046875 C584.45966959 339.85133363 581.89531774 340.8311057 579.27734375 341.8984375 C574.13056102 343.98764933 568.90941493 345.73337026 563.625 347.4375 C556.97821142 349.61288644 550.51459647 351.94616682 544.1015625 354.74609375 C539.28478926 356.69342903 534.3492398 358.27113777 529.40356445 359.85766602 C524.81283334 361.3418109 520.43017966 363.07609569 516 365 C514.02941205 365.6916128 512.05032936 366.35962544 510.0625 367 C505.31777683 368.53261583 500.66019844 370.23178248 496 372 C494.72553577 372.4772984 493.4508002 372.95387294 492.17578125 373.4296875 C484.88525447 376.15616524 477.60772006 378.91188518 470.34765625 381.71875 C467.24127592 382.90765636 464.1269806 384.07193878 461.0090332 385.22998047 C455.73593985 387.19006726 450.4920594 389.17626966 445.3125 391.375 C438.85381808 394.11263061 432.2980692 396.58268535 425.7355957 399.05810547 C414.17084274 403.39462966 414.17084274 403.39462966 402.875 408.375 C398.54766782 410.37099153 394.1555834 412.09655733 389.68359375 413.734375 C381.10127601 416.91712484 372.64137378 420.36783164 364.1875 423.875 C362.68805233 424.49486523 361.18853994 425.11457394 359.68896484 425.73413086 C349.71334603 429.85918954 339.75450543 434.02315826 329.81494141 438.234375 C327.15305304 439.35728082 324.48253106 440.45912293 321.8125 441.5625 C314.50668981 444.62622685 307.25798348 447.82463223 300 451 C299.67 785.62 299.34 1120.24 299 1465 C200.33 1465 101.66 1465 0 1465 C0 1178.23 0 891.46 0 596 C-13.97033068 602.53442023 -13.97033068 602.53442023 -27.5625 609.6875 C-29.43720365 610.72319285 -31.31221506 611.75832878 -33.1875 612.79296875 C-34.13882812 613.31938965 -35.09015625 613.84581055 -36.0703125 614.38818359 C-40.04204956 616.57330093 -44.03452465 618.71902091 -48.02685547 620.86621094 C-57.42601195 625.92485298 -66.75263322 631.08867587 -76.00292969 636.41455078 C-82.74108475 640.29259831 -89.52089537 644.09147251 -96.3125 647.875 C-107.56229843 654.1550391 -118.70604175 660.60360308 -129.81445312 667.12988281 C-133.14997623 669.08804552 -136.48870866 671.04067635 -139.828125 672.9921875 C-175.11503032 693.60386727 -175.11503032 693.60386727 -209.99609375 714.890625 C-215.51024901 718.3288759 -221.06780897 721.69442203 -226.625 725.0625 C-235.15847882 730.24166413 -243.62444187 735.51589647 -252.05078125 740.8671875 C-256.68713651 743.80925338 -261.34534902 746.7155336 -266.00585938 749.61914062 C-274.52055845 754.92416604 -283.01395607 760.25424906 -291.4206543 765.72900391 C-296.65172215 769.13490361 -301.90852475 772.49894937 -307.171875 775.85473633 C-317.80639325 782.63726288 -328.3707453 789.50689774 -338.83642578 796.546875 C-342.6754667 799.12529652 -346.52601924 801.6864512 -350.375 804.25 C-352.47168015 805.6476233 -354.56820354 807.04548093 -356.66455078 808.44360352 C-358.3549459 809.57012127 -360.04612744 810.69545925 -361.73779297 811.82006836 C-369.31190633 816.85929198 -376.85041015 821.94976803 -384.375 827.0625 C-385.60611802 827.89868425 -386.83723784 828.73486585 -388.06835938 829.57104492 C-390.54293029 831.25201937 -393.01718453 832.93345864 -395.49121094 834.61523438 C-398.66246921 836.77092027 -401.83514304 838.92451654 -405.0078125 841.078125 C-416.24351251 848.71289138 -427.4067777 856.44411607 -438.51904297 864.25732422 C-441.89194545 866.62652102 -445.27023835 868.98797398 -448.6484375 871.34960938 C-463.75699842 881.91398005 -478.80967085 892.54582001 -493.73828125 903.36328125 C-495.97939733 904.98509064 -498.22351315 906.60265132 -500.46875 908.21875 C-510.56948957 915.49163597 -520.60797431 922.84508805 -530.61767578 930.24267578 C-532.9696305 931.9775979 -535.32584839 933.70655144 -537.68359375 935.43359375 C-546.07783019 941.58755929 -554.4149603 947.80817006 -562.6875 954.125 C-563.56043701 954.79128418 -564.43337402 955.45756836 -565.33276367 956.14404297 C-568.70585932 958.71947058 -572.07877625 961.29512425 -575.44921875 963.87402344 C-577.6917498 965.58742836 -579.93892424 967.29453979 -582.1875 969 C-582.85289795 969.51062988 -583.5182959 970.02125977 -584.20385742 970.54736328 C-588.77159757 974 -588.77159757 974 -591 974 C-591 1136.36 -591 1298.72 -591 1466 C-689.34 1466 -787.68 1466 -889 1466 C-888.875 1329.9375 -888.875 1329.9375 -888.75732422 1287.12866211 C-888.77050492 1274.35839397 -888.77050492 1274.35839397 -888.79690552 1261.58815002 C-888.80822571 1255.94250711 -888.79258141 1250.29776687 -888.75808716 1244.65223694 C-887.77176828 1202.15113258 -887.77176828 1202.15113258 -898.87459183 1161.59170723 C-900.48339144 1157.88679581 -901.51970799 1154.14954625 -902.5625 1150.25 C-904.65529584 1142.94383373 -907.06745867 1135.76205354 -909.5 1128.5625 C-912.27886442 1120.33378541 -914.89200259 1112.12097144 -917.11499023 1103.72607422 C-919.11592325 1096.3008635 -921.58261296 1089.03722925 -924.05883789 1081.7590332 C-927.62741494 1071.26033129 -930.82189275 1060.65987702 -933.94165039 1050.02026367 C-936.71975352 1040.54855978 -939.54094033 1031.11650387 -942.7265625 1021.7734375 C-946.9970194 1009.11926153 -950.92233686 996.35176436 -954.72802734 983.55126953 C-958.48448541 970.96252966 -962.48292687 958.44605236 -966.6875 946 C-968.19896589 941.50473413 -969.59709686 937.00452091 -970.875 932.4375 C-973.6467545 922.54155723 -976.85801128 912.78323799 -980 903 C-984.38746839 889.31188475 -988.67854163 875.59737064 -992.89453125 861.85546875 C-1003.2020784 828.17329562 -1003.2020784 828.17329562 -1014.125 794.6875 C-1016.16746146 788.62082854 -1018.05418862 782.52415679 -1019.8269043 776.37329102 C-1022.08688726 768.58987816 -1024.51500291 760.85895754 -1026.9375 753.125 C-1027.2687941 752.06709763 -1027.2687941 752.06709763 -1027.60678101 750.98782349 C-1030.30529532 742.37476402 -1033.01709312 733.76593453 -1035.74414062 725.16186523 C-1038.00553104 718.01313141 -1040.21958157 710.84981668 -1042.4375 703.6875 C-1047.4379756 687.55235367 -1052.44259349 671.41830017 -1057.87182617 655.42114258 C-1061.94088399 643.37086985 -1065.4553914 631.14197182 -1069 618.9296875 C-1070.83177956 612.69018839 -1072.83372529 606.57319395 -1075.10253906 600.47949219 C-1076.35891099 597.00840587 -1077.37996014 593.49052039 -1078.375 589.9375 C-1080.12906908 583.82351406 -1082.02850732 577.77657397 -1084.0625 571.75 C-1088.19540171 559.48340267 -1091.87057912 547.10181747 -1095.45092773 534.66357422 C-1097.16892555 528.7249719 -1099.00860345 522.85185332 -1101 517 C-1102.43357322 512.73462107 -1103.84584692 508.46264465 -1105.25 504.1875 C-1105.62640625 503.06923828 -1106.0028125 501.95097656 -1106.390625 500.79882812 C-1106.74125 499.72439453 -1107.091875 498.64996094 -1107.453125 497.54296875 C-1107.77442383 496.57383545 -1108.09572266 495.60470215 -1108.42675781 494.60620117 C-1109.04207851 491.8086933 -1109.28773382 490.55665389 -1108 488 C-1105.6550293 486.33666992 -1105.6550293 486.33666992 -1102.57421875 484.73046875 C-1101.46755859 484.15232422 -1100.36089844 483.57417969 -1099.22070312 482.97851562 C-1098.05474609 482.38748047 -1096.88878906 481.79644531 -1095.6875 481.1875 C-1094.53314453 480.57712891 -1093.37878906 479.96675781 -1092.18945312 479.33789062 C-1083.63720805 474.93519684 -1083.63720805 474.93519684 -1080.7434082 475.22949219 C-1078.24077576 476.33554288 -1077.15383395 477.89002953 -1075.5 480.0625 C-1074.80132813 480.97128906 -1074.10265625 481.88007812 -1073.3828125 482.81640625 C-1072.20332031 484.39228516 -1072.20332031 484.39228516 -1071 486 C-1070.10159968 487.1966425 -1069.20316035 488.39325571 -1068.3046875 489.58984375 C-1066.81438506 491.5772508 -1065.32586831 493.56591561 -1063.84130859 495.55761719 C-1060.00388679 500.69717003 -1056.08111419 505.76396007 -1052.125 510.8125 C-1046.60732903 517.86200845 -1041.25962745 525.02200769 -1035.96923828 532.24316406 C-1029.97798503 540.41474111 -1023.79277215 548.42602114 -1017.5546875 556.41015625 C-1011.94185766 563.59892483 -1006.35348369 570.78312758 -1001.03125 578.19140625 C-994.26290544 587.54994421 -987.24384759 596.71895117 -980.125 605.8125 C-974.60833629 612.86148542 -969.26009302 620.01978959 -963.97143555 627.2409668 C-959.50813995 633.3301368 -954.94600228 639.32944346 -950.31884766 645.29541016 C-942.89795518 654.88679691 -935.57028213 664.54833527 -928.30908203 674.26098633 C-925.23713919 678.36520351 -922.13513036 682.44388187 -919 686.5 C-914.77472562 691.97118862 -910.62105575 697.49274565 -906.48291016 703.0300293 C-902.36193608 708.53690633 -898.17559742 713.99037032 -893.9609375 719.42578125 C-892.57968897 721.23901388 -891.2643831 723.10342534 -890 725 C-889.67 486.41 -889.34 247.82 -889 2 C-790.66 2 -692.32 2 -591 2 C-591 235.97 -591 469.94 -591 711 C-581.76 706.05 -572.52 701.1 -563 696 C-556.19965216 692.44126875 -549.39804309 688.88682612 -542.58740234 685.34814453 C-539.43927621 683.70783952 -536.29837784 682.05414549 -533.15934753 680.39651489 C-529.10903839 678.25899495 -525.05491152 676.12877427 -521 674 C-520.13502396 673.54573135 -519.27004791 673.09146271 -518.37886047 672.62342834 C-497.87886584 661.87850432 -477.18947698 651.51705938 -456.48339844 641.17651367 C-451.69648507 638.78591436 -446.9114062 636.39166822 -442.12678528 633.99648476 C-405.27600659 615.5523495 -405.27600659 615.5523495 -387.39672852 607.1322937 C-382.75580104 604.9397663 -378.12915498 602.71724434 -373.5 600.5 C-364.88422534 596.3766145 -364.88422534 596.3766145 -360.625 594.5625 C-355.51084143 592.35812131 -350.51466782 589.92065271 -345.5 587.5 C-343.49025122 586.52986518 -341.47984978 585.56108108 -339.46875 584.59375 C-338.58638672 584.16771484 -337.70402344 583.74167969 -336.79492188 583.30273438 C-334.17872752 582.08330626 -331.53694254 580.94262298 -328.88067627 579.81384277 C-325.44504756 578.32711077 -322.05770686 576.73590298 -318.6640625 575.15625 C-317.03716933 574.40164482 -315.41021379 573.64717409 -313.78320312 572.89282227 C-312.94023682 572.50168243 -312.09727051 572.1105426 -311.22875977 571.70755005 C-295.23004574 564.28779952 -279.19114096 556.99182704 -263 550 C-262.34604248 549.71471436 -261.69208496 549.42942871 -261.01831055 549.13549805 C-257.32272726 547.53120209 -253.59184603 546.08140329 -249.8125 544.6875 C-244.39271785 542.62400496 -239.26953992 540.23616971 -234.14453125 537.52734375 C-230.79507012 535.90046263 -227.39647321 534.54764614 -223.93334961 533.18481445 C-218.68627308 531.06545845 -213.51964423 528.75749158 -208.33761597 526.4848938 C-198.420544 522.13986205 -188.50619187 517.92921314 -178.31640625 514.2578125 C-173.83535031 512.55828363 -169.55570754 510.49925278 -165.23046875 508.44140625 C-160.71238706 506.42547863 -156.07712474 504.83875642 -151.38671875 503.2734375 C-148.25548094 502.09606319 -145.37173029 500.67032656 -142.39916992 499.14648438 C-137.16944951 496.64737304 -131.71436453 494.65475121 -126.3125 492.5625 C-124.52682617 491.86543945 -124.52682617 491.86543945 -122.70507812 491.15429688 C-119.13888024 489.76388693 -115.56994331 488.3807621 -112 487 C-110.83291504 486.5474585 -109.66583008 486.09491699 -108.46337891 485.62866211 C-102.91701321 483.48464537 -97.36829249 481.38490331 -91.75 479.4375 C-87.13966347 477.80912507 -82.70682093 476.01672567 -78.2734375 473.96484375 C-74.56594934 472.39139087 -70.72431318 471.23414904 -66.89453125 469.99609375 C-64.40110049 469.13803053 -62.07154463 468.18044183 -59.6875 467.0625 C-55.78258956 465.25152704 -51.77767286 463.88493291 -47.6875 462.5625 C-43.03693222 461.05846449 -38.49214458 459.43386521 -34 457.5 C-28.24391994 455.02644127 -22.38138303 453.06769401 -16.4296875 451.1328125 C-13.71109854 450.23487309 -11.04226163 449.28670924 -8.375 448.25 C-5 447 -5 447 0 446 C0 298.82 0 151.64 0 0 Z " fill="#FBFAFA" transform="translate(1285,266)"/>
<path d="M0 0 C660 0 1320 0 2000 0 C2000 660 2000 1320 2000 2000 C1340 2000 680 2000 0 2000 C0 1340 0 680 0 0 Z M119 108 C118.20980469 108.64453125 117.41960937 109.2890625 116.60546875 109.953125 C97.87033654 125.88536341 85.65405768 148.52165354 83 173 C82.48490656 181.55736062 82.58478453 190.14067482 82.6100604 198.70988808 C82.61703509 202.22009206 82.60641517 205.73025379 82.59815994 209.24044898 C82.58605123 215.40437444 82.58499739 221.56822393 82.59127777 227.73215695 C82.60062806 236.9598567 82.59264216 246.18748717 82.58138165 255.41518191 C82.56270053 271.1446583 82.55826033 286.87410991 82.56163406 302.60359573 C82.56500916 318.54025504 82.56189912 334.47689333 82.55091667 350.41354942 C82.55022771 351.42074056 82.54953875 352.42793169 82.54882892 353.46564377 C82.54600395 357.56789684 82.54313688 361.67014988 82.54021534 365.77240288 C82.50979343 408.55177767 82.50059783 451.33114067 82.49883901 494.11052503 C82.49864477 498.71416968 82.49844095 503.31781432 82.49822879 507.92145896 C82.49817777 509.06387456 82.49812676 510.20629017 82.4980742 511.38332443 C82.49684857 536.70478026 82.49027799 562.02623385 82.48276125 587.34768849 C82.47967618 597.77574122 82.47670607 608.20379397 82.4737125 618.63184673 C82.47338074 619.78407019 82.47304897 620.93629365 82.47270715 622.12343298 C82.45373656 688.14579114 82.44135964 754.16814782 82.44273281 820.19050884 C82.44278015 822.66097857 82.44282735 825.13144829 82.44287444 827.60191801 C82.44309459 838.75578111 82.44335909 849.9096442 82.44363609 861.06350729 C82.44375946 866.03725887 82.4438799 871.01101045 82.44400003 875.98476204 C82.44406121 878.47421303 82.44412427 880.96366403 82.44418921 883.45311502 C82.44623011 962.17864018 82.42427445 1040.90412486 82.38256836 1119.62963867 C82.37206526 1139.46635012 82.36165686 1159.3030616 82.35177517 1179.13977337 C82.35116655 1180.36120661 82.35055793 1181.58263985 82.34993086 1182.84108623 C82.33128566 1220.48735094 82.31998915 1258.13361234 82.31620121 1295.77988148 C82.31608136 1296.96183759 82.31596151 1298.1437937 82.31583802 1299.36156667 C82.31327819 1325.3084291 82.31249461 1351.25529132 82.31334915 1377.20215385 C82.3136386 1386.48638245 82.31379473 1395.77061105 82.31388534 1405.05483965 C82.31390908 1407.36450406 82.3139397 1409.67416847 82.31397721 1411.98383288 C82.31450611 1448.7812605 82.29741509 1485.57865347 82.27151576 1522.37607116 C82.24556316 1559.43752277 82.23899466 1596.49892639 82.25879973 1633.56038327 C82.26153655 1638.68340385 82.2640664 1643.80642452 82.26647377 1648.92944527 C82.26695403 1649.93367814 82.26743429 1650.93791102 82.26792911 1651.9725752 C82.2749836 1667.86307528 82.26192592 1683.75349229 82.24046021 1699.64397676 C82.21976638 1715.27544454 82.22054467 1730.90678983 82.24403662 1746.53825496 C82.25716397 1755.6977729 82.25400683 1764.85692968 82.22643626 1774.01641756 C82.2097499 1780.1084793 82.21503947 1786.20027292 82.23778461 1792.29231424 C82.25005469 1795.74013192 82.25341559 1799.18724177 82.22953254 1802.63501476 C82.05610627 1833.92507416 90.06862401 1859.4083784 111.609375 1882.59765625 C128.29779351 1899.36788073 152.12906683 1911.22085237 176.02924958 1911.39857419 C177.0892226 1911.3915201 178.14919561 1911.38446601 179.24128902 1911.37719816 C180.40879003 1911.38152934 181.57629105 1911.38586052 182.77917088 1911.39032295 C185.99857313 1911.39926193 189.21762946 1911.39492067 192.43701755 1911.38479719 C195.96050164 1911.37707952 199.48394648 1911.38691982 203.00742501 1911.3944377 C209.19941115 1911.40525137 215.39131925 1911.40495687 221.58330904 1911.39736467 C230.85296883 1911.38605329 240.12256284 1911.39207804 249.39222195 1911.40142866 C265.19181595 1911.41685591 280.99138242 1911.41803728 296.79098129 1911.41144943 C312.8014593 1911.40482173 328.81191762 1911.40469665 344.82239532 1911.41249657 C345.83376291 1911.41298457 346.8451305 1911.41347256 347.88714559 1911.41397535 C352.00631502 1911.41598354 356.12548443 1911.41803664 360.24465382 1911.42014709 C402.06044706 1911.44154877 443.87622574 1911.44360141 485.69202308 1911.43809005 C491.47016242 1911.43733434 497.24830175 1911.43660672 503.0264411 1911.43590808 C504.1741078 1911.43576899 505.3217745 1911.4356299 506.50421898 1911.43548659 C531.93466929 1911.4325347 557.36511784 1911.43554669 582.79556784 1911.43980437 C586.27567775 1911.44038652 589.75578766 1911.44095537 593.23589758 1911.44152 C602.56479442 1911.44303494 611.89369125 1911.44456185 621.22258809 1911.44611301 C686.34902452 1911.45687033 751.47545933 1911.46157091 816.60189629 1911.45364285 C818.44348141 1911.45342039 818.44348141 1911.45342039 820.32227027 1911.45319343 C834.012839 1911.45153442 847.70340772 1911.44978484 861.39397644 1911.44800042 C862.63004477 1911.4478394 863.86611311 1911.44767837 865.13963806 1911.44751247 C872.63778172 1911.446535 872.63778172 1911.446535 880.13592539 1911.44555128 C959.20862664 1911.43515873 1038.28130563 1911.44292805 1117.35400391 1911.46655273 C1137.2794081 1911.47249606 1157.2048123 1911.47838759 1177.1302166 1911.48396206 C1178.35707485 1911.48430583 1179.5839331 1911.4846496 1180.84796887 1911.48500379 C1218.65431786 1911.49552978 1256.460665 1911.50112511 1294.26701546 1911.5015192 C1296.04717688 1911.50153838 1296.04717688 1911.50153838 1297.86330117 1911.50155794 C1323.91441083 1911.50178622 1349.96552034 1911.50078022 1376.01662991 1911.49864888 C1385.33785728 1911.49789411 1394.65908466 1911.4972159 1403.98031203 1911.49656873 C1406.29922159 1911.49640604 1408.61813115 1911.49623838 1410.93704071 1911.49606572 C1447.89945557 1911.49334358 1484.86185692 1911.50190281 1521.82426887 1911.51591982 C1560.08052288 1911.53032113 1598.3367512 1911.52988551 1636.59300433 1911.5125451 C1640.70027038 1911.51074089 1644.80753645 1911.50900071 1648.91480255 1911.50731087 C1649.9228036 1911.50689037 1650.93080464 1911.50646987 1651.96935117 1911.50603662 C1667.93656116 1911.49973641 1683.90373586 1911.50684661 1699.87094088 1911.51952007 C1715.56771079 1911.5316962 1731.26442496 1911.52960812 1746.96119064 1911.51229975 C1756.16570218 1911.50257555 1765.37005547 1911.50377595 1774.57455668 1911.52112973 C1780.68879899 1911.53156313 1786.80292074 1911.52747227 1792.9171511 1911.51161324 C1796.38239089 1911.50302963 1799.84731759 1911.5005524 1803.3125407 1911.51599697 C1823.0074767 1911.61433058 1823.0074767 1911.61433058 1842 1907 C1843.14438555 1906.61183179 1844.2887711 1906.22366358 1845.467835 1905.8237327 C1870.28979955 1897.21144186 1890.06243596 1878.87512808 1901.7578125 1855.484375 C1908.06777309 1841.34245327 1911.15804099 1827.92136736 1911.12880117 1812.5435248 C1911.13057618 1811.3879831 1911.13235119 1810.2324414 1911.13417998 1809.04188328 C1911.13810147 1805.82817447 1911.13754741 1802.61450208 1911.13512228 1799.40079293 C1911.1335795 1795.89384055 1911.13783759 1792.38689436 1911.14134905 1788.87994406 C1911.14672354 1782.70776015 1911.14836598 1776.53558386 1911.1475983 1770.36339778 C1911.14646333 1761.12325879 1911.15104253 1751.88312868 1911.15672914 1742.64299168 C1911.16624372 1726.89598215 1911.1709487 1711.1489744 1911.17303848 1695.40196228 C1911.17516624 1679.43895777 1911.17942434 1663.47595601 1911.1862812 1647.5129528 C1911.18671182 1646.5055175 1911.18714243 1645.49808219 1911.1875861 1644.46011854 C1911.18934442 1640.35711872 1911.19111407 1636.25411891 1911.19289912 1632.1511191 C1911.21450307 1582.39675629 1911.2253783 1532.64239294 1911.23437535 1482.88802651 C1911.23730889 1466.75554181 1911.24067872 1450.62305724 1911.24434257 1434.49057269 C1911.24460086 1433.35262992 1911.24485915 1432.21468715 1911.24512527 1431.04226127 C1911.24617148 1426.43863018 1911.2472199 1421.83499908 1911.24827109 1417.23136799 C1911.26623575 1338.48642722 1911.28161538 1259.74148623 1911.28903012 1180.99654369 C1911.28961409 1174.81074028 1911.29021136 1168.62493687 1911.29080774 1162.43913346 C1911.29092586 1161.21205916 1911.29104398 1159.98498485 1911.29116567 1158.72072648 C1911.29236307 1146.28861489 1911.29357183 1133.85650331 1911.29479821 1121.42439172 C1911.29504344 1118.93170547 1911.2952873 1116.43901922 1911.29552978 1113.94633298 C1911.3033204 1033.88122037 1911.32570581 953.81612242 1911.3582062 873.75101622 C1911.38154924 816.22577794 1911.4031023 758.70054257 1911.41021252 701.17529964 C1911.41035954 699.99247178 1911.41050656 698.80964392 1911.41065803 697.59097279 C1911.41384274 671.62590727 1911.41589371 645.66084178 1911.41688558 619.69577609 C1911.41730033 609.2486859 1911.41785523 598.80159572 1911.41844749 588.35450554 C1911.41850816 587.21112933 1911.41856883 586.06775311 1911.41863134 584.88972914 C1911.42064793 548.04810857 1911.43489075 511.20650529 1911.4553925 474.36489076 C1911.47596763 437.2598775 1911.48387056 400.15488423 1911.47431473 363.04986583 C1911.47299626 357.9231295 1911.47181822 352.79639314 1911.47072411 347.66965675 C1911.47050426 346.66467034 1911.47028441 345.65968393 1911.4700579 344.62424339 C1911.46694292 328.70761849 1911.47727263 312.79103182 1911.49319966 296.87441578 C1911.50858029 281.22542799 1911.50970702 265.5764931 1911.49565142 249.92750347 C1911.48783858 240.75203728 1911.49096197 231.57673267 1911.51028858 222.40128261 C1911.52203508 216.30494941 1911.5192293 210.20873409 1911.50467394 204.11240726 C1911.49683176 200.65815122 1911.49507331 197.20421099 1911.51129298 193.74997697 C1911.63158018 161.95305095 1903.77476717 136.54299553 1881.28515625 113.1796875 C1866.42359846 98.57894764 1843.18666936 85.8810225 1822.01727675 85.87343816 C1821.03013969 85.87066285 1820.04300264 85.86788753 1819.02595234 85.86502812 C1817.94602644 85.86706445 1816.86610054 85.86910079 1815.75344962 85.87119883 C1814.01772148 85.86853632 1814.01772148 85.86853632 1812.24692812 85.86582002 C1809.01935792 85.86188961 1805.79182382 85.86245677 1802.56425326 85.86487772 C1799.04570966 85.86641728 1795.5271723 85.86216533 1792.00863078 85.85865095 C1785.81289711 85.85327067 1779.61717103 85.85163473 1773.4214352 85.8524017 C1764.14601017 85.85353562 1754.870594 85.8489608 1745.59517096 85.84327086 C1729.78882117 85.83375138 1713.98247314 85.82905042 1698.17612076 85.82696152 C1682.15099899 85.82483439 1666.12587997 85.82057783 1650.10075951 85.8137188 C1649.08972194 85.81328818 1648.07868437 85.81285757 1647.0370093 85.8124139 C1642.91939182 85.81065559 1638.80177434 85.80888595 1634.68415687 85.80710088 C1584.74008262 85.78549133 1534.79600782 85.77462062 1484.85192996 85.76562465 C1468.65781739 85.76269141 1452.46370495 85.75932162 1436.26959252 85.75565743 C1434.5563271 85.75527 1434.5563271 85.75527 1432.80845026 85.75487473 C1428.18775381 85.75382853 1423.56705736 85.75278011 1418.94636092 85.75172891 C1339.90696417 85.73376345 1260.86756721 85.71838381 1181.82816872 85.71096988 C1175.61854179 85.71038591 1169.40891486 85.70978864 1163.19928794 85.70919226 C1161.9674835 85.70907414 1160.73567906 85.70895602 1159.46654722 85.70883433 C1146.98644365 85.70763692 1134.50634009 85.70642817 1122.02623653 85.70520179 C1119.52392115 85.70495656 1117.02160577 85.7047127 1114.51929039 85.70447022 C1034.14964432 85.69668006 953.78001286 85.67429617 873.41037317 85.6417938 C815.67003305 85.61845083 757.92969584 85.59689766 700.18935108 85.58978748 C699.00209338 85.58964046 697.81483567 85.58949344 696.59160046 85.58934197 C670.52920845 85.58615726 644.46681646 85.58410628 618.40442428 85.58311442 C607.91810772 85.58269967 597.43179117 85.58214477 586.94547462 85.58155251 C585.79780086 85.58149184 584.65012709 85.58143117 583.46767534 85.58136866 C546.48648336 85.57935201 509.50530861 85.56510871 472.52412264 85.5446075 C435.27731469 85.52403226 398.03052666 85.51612947 360.7837136 85.52568527 C355.63735982 85.52700374 350.49100601 85.52818178 345.34465218 85.52927589 C344.33581864 85.52949574 343.32698511 85.52971559 342.28758086 85.5299421 C326.30982181 85.53305712 310.33210085 85.52272722 294.35435063 85.50680034 C278.64529496 85.4914199 262.936292 85.49029281 247.2272345 85.50434858 C238.01643897 85.5121616 228.8058044 85.50903752 219.59502492 85.48971142 C213.47527775 85.47796532 207.35564801 85.48077025 201.23590718 85.49532606 C197.76832944 85.50316859 194.30106631 85.50492567 190.83351051 85.48870702 C163.85417131 85.38704177 140.22018551 90.07579444 119 108 Z " fill="#FEFEFE" transform="translate(0,0)"/>
</svg>
